<svg width="30" height="23" viewBox="0 0 30 23" fill="none" xmlns="http://www.w3.org/2000/svg">
<g id="Group">
<path id="Vector" d="M21.4167 20.7167C21.8808 20.7167 22.3259 20.5787 22.6541 20.3329C22.9823 20.0872 23.1667 19.7539 23.1667 19.4064C23.1667 19.0589 22.9823 18.7256 22.6541 18.4799C22.3259 18.2342 21.8808 18.0961 21.4167 18.0961C20.9525 18.0961 20.5074 18.2342 20.1792 18.4799C19.851 18.7256 19.6667 19.0589 19.6667 19.4064C19.6667 19.7539 19.851 20.0872 20.1792 20.3329C20.5074 20.5787 20.9525 20.7167 21.4167 20.7167ZM9.75 20.7167C10.2141 20.7167 10.6592 20.5787 10.9874 20.3329C11.3156 20.0872 11.5 19.7539 11.5 19.4064C11.5 19.0589 11.3156 18.7256 10.9874 18.4799C10.6592 18.2342 10.2141 18.0961 9.75 18.0961C9.28587 18.0961 8.84075 18.2342 8.51256 18.4799C8.18437 18.7256 8 19.0589 8 19.4064C8 19.7539 8.18437 20.0872 8.51256 20.3329C8.84075 20.5787 9.28587 20.7167 9.75 20.7167Z" fill="#111111" stroke="#111111" stroke-width="1.5" stroke-linecap="round" stroke-linejoin="round"/>
<path id="Vector_2" d="M5.2 3.46642H29L26.2 17.0317M5.2 3.46642L8 17.0317H26.2M5.2 3.46642C4.9662 2.64387 3.8 1 1 1M26.2 17.0317H5.522C3.0244 17.0317 1.7 17.9949 1.7 19.4982C1.7 21.0015 3.0244 21.9646 5.522 21.9646H25.5" stroke="#111111" stroke-width="1.5" stroke-linecap="round" stroke-linejoin="round"/>
</g>
</svg>
